<?xml version="1.0" encoding="UTF-8"?>
<!DOCTYPE svg PUBLIC "-//W3C//DTD SVG 1.1//EN" "http://www.w3.org/Graphics/SVG/1.1/DTD/svg11.dtd">
<!-- Creator: CorelDRAW 2019 -->
<svg xmlns="http://www.w3.org/2000/svg" xml:space="preserve" width="34.7924mm" height="11.6417mm" version="1.1" style="shape-rendering:geometricPrecision; text-rendering:geometricPrecision; image-rendering:optimizeQuality; fill-rule:evenodd; clip-rule:evenodd"
viewBox="0 0 125.85 42.11"
 xmlns:xlink="http://www.w3.org/1999/xlink"
 xmlns:xodm="http://www.corel.com/coreldraw/odm/2003">
 <defs>
  <style type="text/css">
   <![CDATA[
    .str0 {stroke:white;stroke-width:1.91;stroke-linejoin:round;stroke-miterlimit:2.3662}
    .fil0 {fill:none}
    .fil1 {fill:white;fill-rule:nonzero}
   ]]>
  </style>
 </defs>
 <g id="Layer_x0020_1">
  <metadata id="CorelCorpID_0Corel-Layer"/>
  <polygon class="fil0 str0" points="0.96,0.96 124.89,0.96 124.89,41.15 0.96,41.15 "/>
  <g id="_916034560">
   <path class="fil1" d="M30.59 33.69c0,0.12 -0.03,0.23 -0.1,0.33 -0.06,0.1 -0.17,0.17 -0.33,0.24 -0.15,0.06 -0.36,0.11 -0.62,0.14 -0.26,0.03 -0.57,0.04 -0.96,0.04 -0.41,0 -0.75,-0.01 -1,-0.04 -0.26,-0.03 -0.46,-0.08 -0.61,-0.14 -0.15,-0.06 -0.26,-0.14 -0.32,-0.24 -0.06,-0.1 -0.1,-0.2 -0.1,-0.33l0 -1.93c-0.92,0.99 -1.86,1.74 -2.81,2.23 -0.96,0.5 -1.95,0.75 -2.97,0.75 -1.15,0 -2.12,-0.18 -2.9,-0.56 -0.78,-0.37 -1.41,-0.89 -1.89,-1.53 -0.48,-0.65 -0.82,-1.4 -1.03,-2.25 -0.2,-0.85 -0.31,-1.92 -0.31,-3.19l0 -10.21c0,-0.12 0.03,-0.23 0.1,-0.33 0.07,-0.1 0.2,-0.17 0.38,-0.24 0.18,-0.06 0.43,-0.11 0.73,-0.14 0.31,-0.03 0.68,-0.04 1.14,-0.04 0.46,0 0.84,0.01 1.14,0.04 0.3,0.03 0.54,0.08 0.72,0.14 0.18,0.06 0.31,0.14 0.38,0.24 0.08,0.1 0.12,0.2 0.12,0.33l0 9.42c0,0.87 0.06,1.54 0.17,2 0.12,0.47 0.29,0.86 0.52,1.19 0.23,0.33 0.52,0.59 0.88,0.77 0.35,0.18 0.77,0.27 1.24,0.27 0.6,0 1.2,-0.22 1.81,-0.65 0.6,-0.43 1.25,-1.07 1.93,-1.9l0 -11.09c0,-0.12 0.03,-0.23 0.1,-0.33 0.07,-0.1 0.19,-0.17 0.38,-0.24 0.18,-0.06 0.42,-0.11 0.71,-0.14 0.3,-0.03 0.68,-0.04 1.14,-0.04 0.46,0 0.84,0.01 1.14,0.04 0.29,0.03 0.54,0.08 0.71,0.14 0.17,0.06 0.3,0.14 0.37,0.24 0.08,0.1 0.12,0.2 0.12,0.33l0 16.69z"/>
   <path class="fil1" d="M37.52 12.47c0,0.36 -0.01,0.67 -0.04,0.93 -0.03,0.26 -0.08,0.46 -0.14,0.61 -0.06,0.16 -0.14,0.27 -0.24,0.34 -0.09,0.08 -0.2,0.11 -0.31,0.11l-6.05 0 0 19.5c0,0.12 -0.04,0.24 -0.12,0.34 -0.08,0.1 -0.22,0.18 -0.4,0.24 -0.19,0.06 -0.44,0.11 -0.76,0.15 -0.32,0.04 -0.71,0.06 -1.19,0.06 -0.47,0 -0.87,-0.02 -1.19,-0.06 -0.32,-0.04 -0.57,-0.09 -0.76,-0.15 -0.19,-0.06 -0.32,-0.15 -0.4,-0.24 -0.08,-0.1 -0.12,-0.22 -0.12,-0.34l0 -19.5 -6.05 0c-0.12,0 -0.23,-0.04 -0.32,-0.11 -0.08,-0.07 -0.16,-0.19 -0.22,-0.34 -0.06,-0.15 -0.11,-0.36 -0.14,-0.61 -0.03,-0.26 -0.04,-0.57 -0.04,-0.93 0,-0.37 0.01,-0.69 0.04,-0.95 0.03,-0.26 0.08,-0.47 0.14,-0.63 0.06,-0.16 0.14,-0.27 0.22,-0.34 0.09,-0.07 0.2,-0.1 0.32,-0.1l17.04 0c0.11,0 0.21,0.03 0.31,0.1 0.1,0.07 0.17,0.18 0.24,0.34 0.06,0.15 0.11,0.36 0.14,0.63 0.03,0.26 0.04,0.58 0.04,0.95zm7.32 21.55c0,0.12 -0.04,0.23 -0.11,0.33 -0.07,0.1 -0.2,0.17 -0.38,0.24 -0.18,0.06 -0.42,0.11 -0.71,0.14 -0.3,0.03 -0.68,0.04 -1.14,0.04 -0.46,0 -0.84,-0.01 -1.14,-0.04 -0.29,-0.03 -0.54,-0.08 -0.71,-0.14 -0.18,-0.06 -0.31,-0.14 -0.38,-0.24 -0.08,-0.1 -0.11,-0.2 -0.11,-0.33l0 -16.65c0,-0.12 0.04,-0.23 0.11,-0.33 0.07,-0.1 0.2,-0.18 0.38,-0.24 0.18,-0.07 0.42,-0.12 0.71,-0.16 0.3,-0.04 0.68,-0.06 1.14,-0.06 0.46,0 0.84,0.02 1.14,0.06 0.29,0.04 0.54,0.09 0.71,0.16 0.19,0.06 0.31,0.15 0.38,0.24 0.08,0.1 0.11,0.2 0.11,0.33l0 16.65zm0.38 -22.36c0,0.95 -0.19,1.6 -0.58,1.97 -0.39,0.36 -1.1,0.54 -2.16,0.54 -1.06,0 -1.78,-0.17 -2.14,-0.52 -0.37,-0.35 -0.56,-0.98 -0.56,-1.89 0,-0.95 0.19,-1.61 0.57,-1.98 0.38,-0.36 1.1,-0.55 2.16,-0.55 1.05,0 1.76,0.18 2.14,0.54 0.38,0.35 0.56,0.98 0.56,1.89zm16.91 19.7c0,0.33 -0.01,0.59 -0.03,0.82 -0.02,0.22 -0.04,0.4 -0.08,0.56 -0.03,0.15 -0.07,0.27 -0.11,0.36 -0.04,0.1 -0.14,0.21 -0.29,0.36 -0.15,0.14 -0.41,0.32 -0.77,0.52 -0.36,0.2 -0.77,0.39 -1.24,0.56 -0.46,0.16 -0.96,0.29 -1.5,0.39 -0.54,0.1 -1.1,0.15 -1.68,0.15 -1.28,0 -2.42,-0.2 -3.41,-0.6 -1,-0.4 -1.82,-0.99 -2.5,-1.77 -0.67,-0.78 -1.18,-1.74 -1.52,-2.86 -0.34,-1.12 -0.52,-2.41 -0.52,-3.85 0,-1.67 0.21,-3.12 0.63,-4.33 0.42,-1.22 1,-2.23 1.75,-3.02 0.75,-0.8 1.63,-1.39 2.65,-1.78 1.02,-0.39 2.14,-0.58 3.37,-0.58 0.5,0 0.98,0.04 1.47,0.13 0.48,0.08 0.92,0.2 1.35,0.35 0.41,0.15 0.79,0.32 1.12,0.5 0.33,0.19 0.57,0.35 0.7,0.49 0.14,0.13 0.24,0.25 0.29,0.34 0.05,0.1 0.1,0.22 0.13,0.36 0.03,0.15 0.06,0.34 0.08,0.56 0.02,0.22 0.03,0.48 0.03,0.8 0,0.73 -0.06,1.24 -0.18,1.53 -0.13,0.29 -0.29,0.44 -0.49,0.44 -0.21,0 -0.44,-0.09 -0.68,-0.26 -0.24,-0.17 -0.52,-0.37 -0.84,-0.58 -0.32,-0.21 -0.71,-0.41 -1.15,-0.58 -0.45,-0.17 -0.98,-0.26 -1.61,-0.26 -1.22,0 -2.16,0.47 -2.81,1.41 -0.64,0.94 -0.97,2.32 -0.97,4.14 0,0.89 0.08,1.68 0.24,2.37 0.17,0.68 0.4,1.26 0.72,1.72 0.32,0.46 0.71,0.81 1.19,1.04 0.49,0.23 1.04,0.34 1.68,0.34 0.64,0 1.21,-0.1 1.67,-0.29 0.47,-0.19 0.87,-0.41 1.23,-0.64 0.34,-0.24 0.64,-0.45 0.88,-0.64 0.24,-0.2 0.43,-0.29 0.59,-0.29 0.11,0 0.2,0.03 0.28,0.1 0.08,0.06 0.13,0.18 0.18,0.34 0.04,0.17 0.08,0.39 0.1,0.65 0.03,0.26 0.04,0.6 0.04,1.01zm18.93 2.68c0,0.12 -0.03,0.23 -0.1,0.33 -0.07,0.1 -0.19,0.17 -0.38,0.22 -0.18,0.06 -0.43,0.1 -0.74,0.13 -0.31,0.03 -0.71,0.04 -1.22,0.04 -0.51,0 -0.93,-0.01 -1.24,-0.04 -0.32,-0.03 -0.58,-0.06 -0.78,-0.12 -0.2,-0.06 -0.36,-0.13 -0.48,-0.24 -0.12,-0.1 -0.21,-0.23 -0.3,-0.39l-5.55 -8.79 0 8.83c0,0.12 -0.04,0.23 -0.11,0.33 -0.07,0.1 -0.2,0.17 -0.38,0.24 -0.18,0.06 -0.42,0.11 -0.71,0.14 -0.3,0.03 -0.68,0.04 -1.14,0.04 -0.46,0 -0.84,-0.01 -1.14,-0.04 -0.29,-0.03 -0.54,-0.08 -0.71,-0.14 -0.18,-0.06 -0.31,-0.14 -0.38,-0.24 -0.08,-0.1 -0.11,-0.2 -0.11,-0.33l0 -24.6c0,-0.13 0.04,-0.24 0.11,-0.34 0.07,-0.1 0.2,-0.18 0.38,-0.25 0.18,-0.07 0.42,-0.12 0.71,-0.16 0.3,-0.04 0.68,-0.06 1.14,-0.06 0.46,0 0.84,0.02 1.14,0.06 0.29,0.04 0.54,0.09 0.71,0.16 0.19,0.06 0.31,0.15 0.38,0.25 0.08,0.1 0.11,0.21 0.11,0.34l0 14.64 4.94 -6.64c0.1,-0.15 0.21,-0.28 0.34,-0.4 0.12,-0.11 0.29,-0.2 0.49,-0.26 0.2,-0.06 0.46,-0.11 0.77,-0.14 0.31,-0.03 0.7,-0.04 1.17,-0.04 0.46,0 0.85,0.01 1.17,0.04 0.31,0.03 0.57,0.08 0.77,0.14 0.19,0.06 0.33,0.14 0.4,0.24 0.08,0.1 0.12,0.21 0.12,0.34 0,0.19 -0.04,0.39 -0.14,0.6 -0.1,0.21 -0.24,0.43 -0.42,0.68l-4.87 5.54 5.66 8.73c0.15,0.25 0.26,0.47 0.33,0.64 0.07,0.18 0.1,0.34 0.1,0.5zm17.21 -8.84c0,0.57 -0.13,1 -0.38,1.27 -0.26,0.27 -0.61,0.41 -1.06,0.41l-10.16 0c0,0.71 0.08,1.35 0.26,1.93 0.17,0.57 0.43,1.07 0.8,1.47 0.37,0.4 0.84,0.71 1.42,0.92 0.58,0.21 1.27,0.32 2.08,0.32 0.82,0 1.54,-0.06 2.17,-0.18 0.62,-0.12 1.16,-0.25 1.61,-0.4 0.45,-0.15 0.83,-0.27 1.13,-0.4 0.3,-0.12 0.54,-0.18 0.73,-0.18 0.11,0 0.21,0.02 0.28,0.06 0.08,0.04 0.14,0.12 0.19,0.24 0.04,0.11 0.08,0.27 0.1,0.47 0.02,0.2 0.03,0.47 0.03,0.77 0,0.27 -0.01,0.51 -0.02,0.7 -0.01,0.19 -0.03,0.36 -0.06,0.49 -0.03,0.14 -0.06,0.26 -0.11,0.34 -0.05,0.1 -0.11,0.19 -0.2,0.27 -0.08,0.08 -0.3,0.2 -0.66,0.36 -0.36,0.15 -0.82,0.3 -1.38,0.45 -0.56,0.15 -1.2,0.27 -1.92,0.38 -0.72,0.11 -1.49,0.17 -2.32,0.17 -1.49,0 -2.78,-0.18 -3.9,-0.56 -1.11,-0.37 -2.04,-0.94 -2.79,-1.7 -0.75,-0.76 -1.3,-1.72 -1.67,-2.88 -0.36,-1.16 -0.55,-2.52 -0.55,-4.08 0,-1.48 0.19,-2.81 0.58,-4.01 0.38,-1.19 0.94,-2.19 1.68,-3.02 0.73,-0.83 1.63,-1.46 2.68,-1.9 1.06,-0.44 2.25,-0.66 3.57,-0.66 1.4,0 2.59,0.2 3.58,0.62 1,0.41 1.81,0.98 2.44,1.71 0.63,0.73 1.1,1.6 1.4,2.59 0.3,1 0.45,2.08 0.45,3.25l0 0.75zm-4.56 -1.34c0.04,-1.32 -0.23,-2.36 -0.8,-3.11 -0.57,-0.76 -1.44,-1.14 -2.63,-1.14 -0.6,0 -1.12,0.11 -1.56,0.34 -0.45,0.22 -0.82,0.52 -1.11,0.91 -0.29,0.38 -0.52,0.83 -0.67,1.35 -0.16,0.52 -0.25,1.07 -0.27,1.66l7.04 0zm18.05 8.52c0,0.55 -0.03,0.97 -0.1,1.26 -0.07,0.29 -0.16,0.5 -0.27,0.61 -0.11,0.12 -0.27,0.23 -0.49,0.32 -0.22,0.1 -0.48,0.18 -0.77,0.24 -0.29,0.07 -0.61,0.12 -0.95,0.16 -0.34,0.04 -0.69,0.06 -1.04,0.06 -0.93,0 -1.74,-0.12 -2.43,-0.36 -0.68,-0.24 -1.25,-0.6 -1.7,-1.09 -0.45,-0.49 -0.78,-1.11 -0.99,-1.86 -0.21,-0.75 -0.32,-1.63 -0.32,-2.65l0 -8.54 -2.02 0c-0.24,0 -0.42,-0.15 -0.54,-0.44 -0.13,-0.29 -0.19,-0.78 -0.19,-1.47 0,-0.36 0.01,-0.67 0.04,-0.92 0.03,-0.25 0.08,-0.45 0.15,-0.59 0.06,-0.14 0.14,-0.24 0.24,-0.31 0.09,-0.06 0.2,-0.1 0.33,-0.1l2 0 0 -3.73c0,-0.12 0.03,-0.24 0.1,-0.34 0.07,-0.1 0.2,-0.18 0.38,-0.25 0.18,-0.07 0.43,-0.12 0.73,-0.15 0.31,-0.03 0.68,-0.04 1.14,-0.04 0.46,0 0.84,0.01 1.15,0.04 0.31,0.03 0.55,0.08 0.73,0.15 0.17,0.07 0.3,0.15 0.37,0.25 0.08,0.1 0.12,0.22 0.12,0.34l0 3.73 3.62 0c0.13,0 0.24,0.03 0.33,0.1 0.1,0.06 0.17,0.17 0.24,0.31 0.06,0.15 0.11,0.34 0.14,0.59 0.03,0.25 0.04,0.56 0.04,0.92 0,0.69 -0.06,1.18 -0.19,1.47 -0.13,0.29 -0.31,0.44 -0.54,0.44l-3.64 0 0 7.83c0,0.91 0.14,1.6 0.43,2.05 0.29,0.45 0.8,0.68 1.53,0.68 0.25,0 0.47,-0.02 0.67,-0.06 0.2,-0.04 0.38,-0.1 0.53,-0.15 0.16,-0.05 0.29,-0.1 0.4,-0.15 0.1,-0.04 0.2,-0.06 0.29,-0.06 0.08,0 0.15,0.02 0.22,0.06 0.06,0.04 0.12,0.13 0.16,0.26 0.03,0.13 0.07,0.31 0.1,0.53 0.03,0.23 0.04,0.51 0.04,0.86z"/>
  </g>
 </g>
</svg>
