<?xml version="1.0" encoding="UTF-8"?>
<!DOCTYPE svg PUBLIC "-//W3C//DTD SVG 1.1//EN" "http://www.w3.org/Graphics/SVG/1.1/DTD/svg11.dtd">
<!-- Creator: CorelDRAW 2019 -->
<svg xmlns="http://www.w3.org/2000/svg" xml:space="preserve" width="12.012mm" height="12.012mm" version="1.1" style="shape-rendering:geometricPrecision; text-rendering:geometricPrecision; image-rendering:optimizeQuality; fill-rule:evenodd; clip-rule:evenodd"
viewBox="0 0 12.57 12.57"
 xmlns:xlink="http://www.w3.org/1999/xlink"
 xmlns:xodm="http://www.corel.com/coreldraw/odm/2003">
 <defs>
  <style type="text/css">
   <![CDATA[
    .str0 {stroke:#0068C9;stroke-width:1.11;stroke-linecap:square;stroke-miterlimit:22.9256}
    .fil2 {fill:none}
    .fil0 {fill:#0068C9;fill-rule:nonzero}
    .fil1 {fill:#2395FF;fill-rule:nonzero}
   ]]>
  </style>
 </defs>
 <g id="Layer_x0020_1">
  <metadata id="CorelCorpID_0Corel-Layer"/>
  <g id="_910243416">
   <path class="fil0" d="M7.56 9.64c0,0.04 -0.01,0.07 -0.03,0.09 -0.02,0.03 -0.05,0.05 -0.09,0.07 -0.04,0.02 -0.1,0.03 -0.18,0.04 -0.07,0.01 -0.17,0.01 -0.28,0.01 -0.12,0 -0.22,-0 -0.29,-0.01 -0.07,-0.01 -0.13,-0.02 -0.18,-0.04 -0.04,-0.02 -0.07,-0.04 -0.09,-0.07 -0.02,-0.03 -0.03,-0.06 -0.03,-0.09l0 -0.56c-0.27,0.29 -0.54,0.5 -0.81,0.65 -0.28,0.14 -0.56,0.22 -0.86,0.22 -0.33,0 -0.61,-0.05 -0.84,-0.16 -0.23,-0.11 -0.41,-0.26 -0.55,-0.44 -0.14,-0.19 -0.24,-0.4 -0.3,-0.65 -0.06,-0.25 -0.09,-0.56 -0.09,-0.92l0 -2.95c0,-0.04 0.01,-0.07 0.03,-0.09 0.02,-0.03 0.06,-0.05 0.11,-0.07 0.05,-0.02 0.12,-0.03 0.21,-0.04 0.09,-0.01 0.2,-0.01 0.33,-0.01 0.13,0 0.24,0 0.33,0.01 0.09,0.01 0.16,0.02 0.21,0.04 0.05,0.02 0.09,0.04 0.11,0.07 0.02,0.03 0.03,0.06 0.03,0.09l0 2.73c0,0.25 0.02,0.44 0.05,0.58 0.03,0.13 0.08,0.25 0.15,0.34 0.07,0.1 0.15,0.17 0.25,0.22 0.1,0.05 0.22,0.08 0.36,0.08 0.17,0 0.35,-0.06 0.52,-0.19 0.17,-0.13 0.36,-0.31 0.56,-0.55l0 -3.21c0,-0.04 0.01,-0.07 0.03,-0.09 0.02,-0.03 0.06,-0.05 0.11,-0.07 0.05,-0.02 0.12,-0.03 0.21,-0.04 0.09,-0.01 0.2,-0.01 0.33,-0.01 0.13,0 0.24,0 0.33,0.01 0.08,0.01 0.16,0.02 0.2,0.04 0.05,0.02 0.09,0.04 0.11,0.07 0.02,0.03 0.03,0.06 0.03,0.09l0 4.83z"/>
   <path class="fil1" d="M9.6 3.5c0,0.11 -0,0.19 -0.01,0.27 -0.01,0.07 -0.02,0.13 -0.04,0.18 -0.02,0.05 -0.04,0.08 -0.07,0.1 -0.03,0.02 -0.06,0.03 -0.09,0.03l-1.75 0 0 5.64c0,0.04 -0.01,0.07 -0.04,0.1 -0.02,0.03 -0.06,0.05 -0.12,0.07 -0.05,0.02 -0.13,0.03 -0.22,0.04 -0.09,0.01 -0.21,0.02 -0.34,0.02 -0.14,0 -0.25,-0.01 -0.34,-0.02 -0.09,-0.01 -0.17,-0.03 -0.22,-0.04 -0.05,-0.02 -0.09,-0.04 -0.12,-0.07 -0.02,-0.03 -0.04,-0.06 -0.04,-0.1l0 -5.64 -1.75 0c-0.04,0 -0.07,-0.01 -0.09,-0.03 -0.02,-0.02 -0.05,-0.05 -0.06,-0.1 -0.02,-0.04 -0.03,-0.1 -0.04,-0.18 -0.01,-0.08 -0.01,-0.16 -0.01,-0.27 0,-0.11 0,-0.2 0.01,-0.28 0.01,-0.08 0.02,-0.14 0.04,-0.18 0.02,-0.05 0.04,-0.08 0.06,-0.1 0.03,-0.02 0.06,-0.03 0.09,-0.03l4.93 0c0.03,0 0.06,0.01 0.09,0.03 0.03,0.02 0.05,0.05 0.07,0.1 0.02,0.04 0.03,0.11 0.04,0.18 0.01,0.08 0.01,0.17 0.01,0.28z"/>
  </g>
  <path class="fil2 str0" d="M6.29 0.55c3.17,0 5.73,2.57 5.73,5.73 0,3.17 -2.57,5.73 -5.73,5.73 -3.17,0 -5.73,-2.57 -5.73,-5.73 0,-3.17 2.57,-5.73 5.73,-5.73z"/>
 </g>
</svg>
