<?xml version="1.0" encoding="UTF-8"?>
<!DOCTYPE svg PUBLIC "-//W3C//DTD SVG 1.1//EN" "http://www.w3.org/Graphics/SVG/1.1/DTD/svg11.dtd">
<!-- Creator: CorelDRAW 2019 -->
<svg xmlns="http://www.w3.org/2000/svg" xml:space="preserve" width="12.012mm" height="12.012mm" version="1.1" style="shape-rendering:geometricPrecision; text-rendering:geometricPrecision; image-rendering:optimizeQuality; fill-rule:evenodd; clip-rule:evenodd"
viewBox="0 0 14.3 14.3"
 xmlns:xlink="http://www.w3.org/1999/xlink"
 xmlns:xodm="http://www.corel.com/coreldraw/odm/2003">
 <defs>
  <style type="text/css">
   <![CDATA[
    .str0 {stroke:white;stroke-width:1.26;stroke-linecap:square;stroke-miterlimit:22.9256}
    .fil0 {fill:none}
    .fil1 {fill:white;fill-rule:nonzero}
   ]]>
  </style>
 </defs>
 <g id="Layer_x0020_1">
  <metadata id="CorelCorpID_0Corel-Layer"/>
  <path class="fil0 str0" d="M7.15 0.63c3.6,0 6.52,2.92 6.52,6.52 0,3.6 -2.92,6.52 -6.52,6.52 -3.6,0 -6.52,-2.92 -6.52,-6.52 0,-3.6 2.92,-6.52 6.52,-6.52z"/>
  <g id="_910274520">
   <path class="fil1" d="M8.6 10.96c0,0.04 -0.01,0.08 -0.03,0.11 -0.02,0.03 -0.05,0.06 -0.11,0.08 -0.05,0.02 -0.12,0.04 -0.2,0.05 -0.08,0.01 -0.19,0.01 -0.31,0.01 -0.14,0 -0.25,-0 -0.33,-0.01 -0.08,-0.01 -0.15,-0.03 -0.2,-0.05 -0.05,-0.02 -0.08,-0.05 -0.1,-0.08 -0.02,-0.03 -0.03,-0.07 -0.03,-0.11l0 -0.63c-0.3,0.33 -0.61,0.57 -0.93,0.73 -0.31,0.16 -0.64,0.25 -0.98,0.25 -0.38,0 -0.7,-0.06 -0.95,-0.18 -0.26,-0.12 -0.46,-0.29 -0.62,-0.5 -0.16,-0.21 -0.27,-0.46 -0.34,-0.74 -0.07,-0.28 -0.1,-0.63 -0.1,-1.05l0 -3.36c0,-0.04 0.01,-0.08 0.03,-0.11 0.02,-0.03 0.07,-0.06 0.12,-0.08 0.06,-0.02 0.14,-0.04 0.24,-0.05 0.1,-0.01 0.22,-0.01 0.37,-0.01 0.15,0 0.28,0 0.38,0.01 0.1,0.01 0.18,0.03 0.24,0.05 0.06,0.02 0.1,0.05 0.13,0.08 0.03,0.03 0.04,0.07 0.04,0.11l0 3.1c0,0.29 0.02,0.51 0.05,0.66 0.04,0.15 0.09,0.28 0.17,0.39 0.08,0.11 0.17,0.19 0.29,0.25 0.12,0.06 0.25,0.09 0.41,0.09 0.2,0 0.39,-0.07 0.59,-0.21 0.2,-0.14 0.41,-0.35 0.64,-0.63l0 -3.65c0,-0.04 0.01,-0.08 0.03,-0.11 0.02,-0.03 0.06,-0.06 0.12,-0.08 0.06,-0.02 0.14,-0.04 0.24,-0.05 0.1,-0.01 0.22,-0.01 0.38,-0.01 0.15,0 0.28,0 0.38,0.01 0.1,0.01 0.18,0.03 0.23,0.05 0.06,0.02 0.1,0.05 0.12,0.08 0.03,0.03 0.04,0.07 0.04,0.11l0 5.49z"/>
   <path class="fil1" d="M10.91 3.98c0,0.12 -0,0.22 -0.01,0.31 -0.01,0.08 -0.03,0.15 -0.05,0.2 -0.02,0.05 -0.05,0.09 -0.08,0.11 -0.03,0.03 -0.07,0.04 -0.1,0.04l-1.99 0 0 6.42c0,0.04 -0.01,0.08 -0.04,0.11 -0.03,0.03 -0.07,0.06 -0.13,0.08 -0.06,0.02 -0.14,0.04 -0.25,0.05 -0.1,0.01 -0.24,0.02 -0.39,0.02 -0.16,0 -0.29,-0.01 -0.39,-0.02 -0.1,-0.01 -0.19,-0.03 -0.25,-0.05 -0.06,-0.02 -0.1,-0.05 -0.13,-0.08 -0.03,-0.03 -0.04,-0.07 -0.04,-0.11l0 -6.42 -1.99 0c-0.04,0 -0.08,-0.01 -0.1,-0.04 -0.03,-0.02 -0.05,-0.06 -0.07,-0.11 -0.02,-0.05 -0.04,-0.12 -0.05,-0.2 -0.01,-0.09 -0.01,-0.19 -0.01,-0.31 0,-0.12 0,-0.23 0.01,-0.31 0.01,-0.09 0.03,-0.16 0.05,-0.21 0.02,-0.05 0.05,-0.09 0.07,-0.11 0.03,-0.02 0.07,-0.03 0.1,-0.03l5.6 0c0.04,0 0.07,0.01 0.1,0.03 0.03,0.02 0.06,0.06 0.08,0.11 0.02,0.05 0.04,0.12 0.05,0.21 0.01,0.09 0.01,0.19 0.01,0.31z"/>
  </g>
 </g>
</svg>
