<?xml version="1.0" encoding="UTF-8"?>
<!DOCTYPE svg PUBLIC "-//W3C//DTD SVG 1.1//EN" "http://www.w3.org/Graphics/SVG/1.1/DTD/svg11.dtd">
<!-- Creator: CorelDRAW 2019 -->
<svg xmlns="http://www.w3.org/2000/svg" xml:space="preserve" width="34.7924mm" height="11.6417mm" version="1.1" style="shape-rendering:geometricPrecision; text-rendering:geometricPrecision; image-rendering:optimizeQuality; fill-rule:evenodd; clip-rule:evenodd"
viewBox="0 0 109.16 36.52"
 xmlns:xlink="http://www.w3.org/1999/xlink"
 xmlns:xodm="http://www.corel.com/coreldraw/odm/2003">
 <defs>
  <style type="text/css">
   <![CDATA[
    .str0 {stroke:#0068C9;stroke-width:1.66;stroke-linejoin:round;stroke-miterlimit:2.3662}
    .fil0 {fill:none}
    .fil1 {fill:#0068C9;fill-rule:nonzero}
    .fil2 {fill:#2395FF;fill-rule:nonzero}
   ]]>
  </style>
 </defs>
 <g id="Layer_x0020_1">
  <metadata id="CorelCorpID_0Corel-Layer"/>
  <polygon class="fil0 str0" points="0.83,0.83 108.32,0.83 108.32,35.69 0.83,35.69 "/>
  <g id="_819411304">
   <path class="fil1" d="M26.53 29.22c0,0.11 -0.03,0.2 -0.08,0.28 -0.05,0.08 -0.14,0.15 -0.28,0.2 -0.13,0.05 -0.31,0.09 -0.54,0.12 -0.22,0.03 -0.5,0.04 -0.83,0.04 -0.36,0 -0.65,-0.01 -0.87,-0.04 -0.22,-0.03 -0.4,-0.07 -0.53,-0.12 -0.13,-0.06 -0.22,-0.12 -0.28,-0.2 -0.06,-0.08 -0.08,-0.18 -0.08,-0.28l0 -1.67c-0.8,0.86 -1.61,1.51 -2.44,1.94 -0.83,0.43 -1.69,0.65 -2.57,0.65 -1,0 -1.84,-0.16 -2.51,-0.49 -0.68,-0.32 -1.22,-0.77 -1.64,-1.33 -0.42,-0.56 -0.71,-1.21 -0.9,-1.95 -0.18,-0.74 -0.27,-1.67 -0.27,-2.77l0 -8.85c0,-0.11 0.03,-0.2 0.09,-0.28 0.06,-0.08 0.17,-0.15 0.33,-0.2 0.15,-0.05 0.37,-0.09 0.64,-0.12 0.27,-0.03 0.59,-0.04 0.98,-0.04 0.4,0 0.73,0.01 0.99,0.04 0.26,0.03 0.47,0.07 0.63,0.12 0.16,0.06 0.27,0.12 0.33,0.2 0.07,0.08 0.1,0.18 0.1,0.28l0 8.17c0,0.76 0.05,1.33 0.14,1.73 0.1,0.4 0.25,0.75 0.45,1.03 0.2,0.29 0.45,0.51 0.76,0.67 0.3,0.15 0.66,0.23 1.08,0.23 0.52,0 1.04,-0.19 1.57,-0.56 0.52,-0.38 1.08,-0.93 1.68,-1.65l0 -9.62c0,-0.11 0.03,-0.2 0.09,-0.28 0.06,-0.08 0.17,-0.15 0.33,-0.2 0.15,-0.05 0.37,-0.09 0.62,-0.12 0.26,-0.03 0.59,-0.04 0.99,-0.04 0.4,0 0.73,0.01 0.99,0.04 0.25,0.03 0.46,0.07 0.61,0.12 0.15,0.06 0.26,0.12 0.32,0.2 0.07,0.08 0.1,0.18 0.1,0.28l0 14.48z"/>
   <path class="fil2" d="M32.55 10.81c0,0.32 -0.01,0.58 -0.04,0.81 -0.03,0.22 -0.07,0.4 -0.12,0.53 -0.06,0.14 -0.12,0.24 -0.2,0.3 -0.08,0.07 -0.17,0.1 -0.27,0.1l-5.25 0 0 16.92c0,0.11 -0.03,0.2 -0.11,0.29 -0.07,0.08 -0.19,0.15 -0.35,0.21 -0.16,0.05 -0.38,0.09 -0.66,0.13 -0.28,0.03 -0.62,0.05 -1.03,0.05 -0.41,0 -0.75,-0.02 -1.03,-0.05 -0.28,-0.03 -0.5,-0.08 -0.66,-0.13 -0.16,-0.06 -0.28,-0.13 -0.35,-0.21 -0.07,-0.09 -0.11,-0.19 -0.11,-0.29l0 -16.92 -5.25 0c-0.11,0 -0.2,-0.03 -0.28,-0.1 -0.07,-0.06 -0.14,-0.16 -0.19,-0.3 -0.05,-0.13 -0.09,-0.31 -0.12,-0.53 -0.03,-0.23 -0.04,-0.49 -0.04,-0.81 0,-0.32 0.01,-0.6 0.04,-0.82 0.03,-0.23 0.07,-0.41 0.12,-0.54 0.06,-0.14 0.12,-0.23 0.19,-0.29 0.08,-0.06 0.17,-0.09 0.28,-0.09l14.78 0c0.09,0 0.18,0.03 0.27,0.09 0.08,0.06 0.15,0.15 0.2,0.29 0.06,0.13 0.09,0.32 0.12,0.54 0.03,0.23 0.04,0.5 0.04,0.82zm6.35 18.69c0,0.11 -0.03,0.2 -0.1,0.28 -0.06,0.08 -0.17,0.15 -0.33,0.2 -0.15,0.05 -0.37,0.09 -0.62,0.12 -0.26,0.03 -0.59,0.04 -0.99,0.04 -0.4,0 -0.73,-0.01 -0.99,-0.04 -0.25,-0.03 -0.46,-0.07 -0.62,-0.12 -0.16,-0.06 -0.27,-0.12 -0.33,-0.2 -0.07,-0.08 -0.1,-0.18 -0.1,-0.28l0 -14.44c0,-0.11 0.03,-0.2 0.1,-0.28 0.06,-0.08 0.17,-0.15 0.33,-0.21 0.15,-0.06 0.37,-0.11 0.62,-0.14 0.26,-0.03 0.59,-0.05 0.99,-0.05 0.4,0 0.73,0.02 0.99,0.05 0.25,0.03 0.46,0.08 0.62,0.14 0.16,0.06 0.27,0.13 0.33,0.21 0.07,0.08 0.1,0.18 0.1,0.28l0 14.44zm0.33 -19.39c0,0.82 -0.17,1.39 -0.5,1.7 -0.34,0.32 -0.96,0.47 -1.87,0.47 -0.92,0 -1.54,-0.15 -1.86,-0.45 -0.32,-0.3 -0.48,-0.85 -0.48,-1.64 0,-0.82 0.17,-1.39 0.5,-1.72 0.33,-0.32 0.95,-0.48 1.88,-0.48 0.91,0 1.53,0.15 1.85,0.46 0.33,0.3 0.49,0.85 0.49,1.64zm14.67 17.08c0,0.28 -0.01,0.51 -0.02,0.71 -0.02,0.19 -0.04,0.35 -0.07,0.48 -0.03,0.13 -0.06,0.23 -0.1,0.32 -0.04,0.08 -0.12,0.18 -0.25,0.31 -0.13,0.12 -0.35,0.28 -0.66,0.45 -0.32,0.18 -0.67,0.34 -1.07,0.48 -0.4,0.14 -0.83,0.25 -1.3,0.34 -0.47,0.09 -0.96,0.13 -1.46,0.13 -1.11,0 -2.1,-0.17 -2.96,-0.52 -0.86,-0.34 -1.58,-0.86 -2.17,-1.53 -0.58,-0.68 -1.02,-1.51 -1.32,-2.48 -0.3,-0.97 -0.45,-2.09 -0.45,-3.34 0,-1.45 0.18,-2.71 0.54,-3.76 0.37,-1.06 0.87,-1.93 1.52,-2.62 0.65,-0.69 1.42,-1.21 2.3,-1.54 0.89,-0.34 1.86,-0.5 2.92,-0.5 0.43,0 0.85,0.04 1.27,0.12 0.42,0.07 0.8,0.18 1.17,0.3 0.36,0.13 0.69,0.28 0.97,0.44 0.29,0.17 0.49,0.3 0.61,0.43 0.12,0.12 0.2,0.22 0.25,0.3 0.04,0.08 0.08,0.19 0.11,0.32 0.03,0.13 0.05,0.29 0.07,0.48 0.02,0.19 0.02,0.42 0.02,0.69 0,0.63 -0.05,1.07 -0.16,1.33 -0.11,0.25 -0.25,0.38 -0.42,0.38 -0.18,0 -0.38,-0.08 -0.59,-0.23 -0.2,-0.15 -0.45,-0.32 -0.73,-0.5 -0.28,-0.18 -0.61,-0.35 -1,-0.5 -0.39,-0.15 -0.85,-0.23 -1.39,-0.23 -1.06,0 -1.87,0.41 -2.43,1.22 -0.56,0.82 -0.84,2.01 -0.84,3.59 0,0.77 0.07,1.46 0.21,2.06 0.14,0.59 0.35,1.09 0.63,1.49 0.28,0.4 0.62,0.7 1.03,0.9 0.42,0.2 0.9,0.3 1.46,0.3 0.56,0 1.05,-0.08 1.45,-0.25 0.4,-0.17 0.76,-0.35 1.06,-0.56 0.3,-0.2 0.55,-0.39 0.76,-0.56 0.2,-0.17 0.38,-0.25 0.51,-0.25 0.1,0 0.18,0.03 0.24,0.08 0.07,0.06 0.12,0.15 0.15,0.3 0.04,0.15 0.07,0.34 0.09,0.56 0.02,0.23 0.03,0.52 0.03,0.88zm16.42 2.32c0,0.11 -0.03,0.2 -0.09,0.28 -0.06,0.08 -0.17,0.14 -0.33,0.19 -0.15,0.05 -0.37,0.09 -0.64,0.12 -0.27,0.03 -0.62,0.04 -1.06,0.04 -0.44,0 -0.8,-0.01 -1.08,-0.03 -0.28,-0.02 -0.5,-0.06 -0.68,-0.11 -0.18,-0.05 -0.32,-0.12 -0.42,-0.2 -0.1,-0.08 -0.18,-0.2 -0.26,-0.34l-4.81 -7.63 0 7.66c0,0.11 -0.03,0.2 -0.1,0.28 -0.06,0.08 -0.17,0.15 -0.33,0.2 -0.15,0.05 -0.37,0.09 -0.62,0.12 -0.26,0.03 -0.59,0.04 -0.99,0.04 -0.4,0 -0.73,-0.01 -0.99,-0.04 -0.25,-0.03 -0.46,-0.07 -0.62,-0.12 -0.16,-0.06 -0.27,-0.12 -0.33,-0.2 -0.07,-0.08 -0.1,-0.18 -0.1,-0.28l0 -21.33c0,-0.11 0.03,-0.2 0.1,-0.29 0.06,-0.08 0.17,-0.16 0.33,-0.22 0.15,-0.06 0.37,-0.11 0.62,-0.14 0.26,-0.03 0.59,-0.05 0.99,-0.05 0.4,0 0.73,0.02 0.99,0.05 0.25,0.03 0.46,0.08 0.62,0.14 0.16,0.06 0.27,0.13 0.33,0.22 0.07,0.09 0.1,0.18 0.1,0.29l0 12.7 4.28 -5.76c0.09,-0.13 0.18,-0.24 0.29,-0.34 0.11,-0.09 0.25,-0.17 0.43,-0.23 0.18,-0.05 0.4,-0.09 0.66,-0.12 0.27,-0.03 0.6,-0.04 1.01,-0.04 0.4,0 0.74,0.01 1.01,0.04 0.27,0.03 0.49,0.07 0.66,0.12 0.17,0.06 0.28,0.12 0.34,0.2 0.07,0.08 0.1,0.18 0.1,0.3 0,0.16 -0.04,0.34 -0.12,0.52 -0.08,0.18 -0.2,0.38 -0.37,0.59l-4.23 4.8 4.91 7.58c0.13,0.22 0.22,0.4 0.28,0.56 0.06,0.15 0.09,0.3 0.09,0.43zm14.93 -7.67c0,0.5 -0.11,0.86 -0.33,1.1 -0.22,0.24 -0.53,0.36 -0.92,0.36l-8.81 0c0,0.61 0.07,1.17 0.22,1.67 0.14,0.5 0.38,0.92 0.69,1.27 0.32,0.35 0.73,0.61 1.23,0.8 0.5,0.18 1.1,0.28 1.8,0.28 0.71,0 1.34,-0.05 1.88,-0.15 0.54,-0.11 1.01,-0.22 1.4,-0.34 0.39,-0.13 0.72,-0.24 0.98,-0.34 0.26,-0.11 0.47,-0.15 0.63,-0.15 0.1,0 0.18,0.02 0.24,0.06 0.07,0.04 0.12,0.11 0.17,0.2 0.04,0.09 0.07,0.23 0.09,0.41 0.02,0.18 0.02,0.4 0.02,0.67 0,0.24 -0.01,0.44 -0.02,0.61 -0.01,0.17 -0.03,0.31 -0.05,0.43 -0.02,0.12 -0.05,0.22 -0.09,0.3 -0.04,0.08 -0.1,0.16 -0.17,0.24 -0.07,0.07 -0.26,0.18 -0.58,0.31 -0.32,0.13 -0.71,0.26 -1.2,0.39 -0.49,0.13 -1.04,0.24 -1.67,0.33 -0.63,0.09 -1.29,0.14 -2.01,0.14 -1.29,0 -2.41,-0.16 -3.38,-0.49 -0.96,-0.32 -1.77,-0.81 -2.42,-1.47 -0.65,-0.66 -1.13,-1.49 -1.45,-2.5 -0.32,-1.01 -0.48,-2.19 -0.48,-3.54 0,-1.28 0.17,-2.44 0.5,-3.48 0.33,-1.03 0.82,-1.9 1.46,-2.62 0.64,-0.72 1.41,-1.27 2.32,-1.64 0.92,-0.38 1.95,-0.57 3.09,-0.57 1.21,0 2.25,0.18 3.1,0.54 0.86,0.35 1.57,0.85 2.12,1.48 0.55,0.63 0.96,1.38 1.22,2.25 0.26,0.86 0.39,1.8 0.39,2.82l0 0.65zm-3.95 -1.16c0.03,-1.15 -0.2,-2.05 -0.69,-2.7 -0.49,-0.66 -1.25,-0.98 -2.28,-0.98 -0.52,0 -0.97,0.1 -1.36,0.29 -0.39,0.19 -0.71,0.45 -0.96,0.79 -0.25,0.33 -0.45,0.72 -0.58,1.17 -0.14,0.45 -0.22,0.93 -0.24,1.44l6.11 0zm15.66 7.39c0,0.48 -0.03,0.84 -0.09,1.1 -0.06,0.25 -0.14,0.43 -0.24,0.53 -0.09,0.11 -0.24,0.2 -0.43,0.28 -0.19,0.08 -0.42,0.15 -0.67,0.21 -0.25,0.06 -0.53,0.11 -0.82,0.14 -0.3,0.03 -0.6,0.05 -0.9,0.05 -0.81,0 -1.51,-0.11 -2.11,-0.31 -0.59,-0.2 -1.08,-0.52 -1.48,-0.95 -0.39,-0.43 -0.68,-0.96 -0.86,-1.62 -0.18,-0.65 -0.28,-1.42 -0.28,-2.3l0 -7.41 -1.75 0c-0.2,0 -0.37,-0.13 -0.47,-0.38 -0.11,-0.25 -0.17,-0.68 -0.17,-1.28 0,-0.32 0.01,-0.58 0.04,-0.8 0.03,-0.22 0.07,-0.39 0.13,-0.51 0.05,-0.12 0.12,-0.21 0.2,-0.27 0.08,-0.06 0.18,-0.08 0.28,-0.08l1.74 0 0 -3.24c0,-0.11 0.03,-0.2 0.09,-0.29 0.06,-0.08 0.17,-0.15 0.33,-0.22 0.15,-0.06 0.37,-0.11 0.64,-0.13 0.27,-0.03 0.59,-0.04 0.98,-0.04 0.4,0 0.73,0.01 1,0.04 0.27,0.03 0.48,0.07 0.63,0.13 0.15,0.06 0.26,0.13 0.32,0.22 0.07,0.09 0.1,0.19 0.1,0.29l0 3.24 3.14 0c0.11,0 0.2,0.03 0.28,0.08 0.08,0.06 0.15,0.14 0.2,0.27 0.06,0.13 0.09,0.3 0.12,0.51 0.03,0.22 0.04,0.48 0.04,0.8 0,0.6 -0.06,1.02 -0.16,1.28 -0.11,0.25 -0.27,0.38 -0.47,0.38l-3.15 0 0 6.8c0,0.79 0.12,1.38 0.37,1.78 0.25,0.39 0.69,0.59 1.33,0.59 0.22,0 0.41,-0.02 0.58,-0.06 0.17,-0.04 0.33,-0.08 0.46,-0.13 0.14,-0.04 0.25,-0.09 0.34,-0.13 0.09,-0.04 0.18,-0.06 0.25,-0.06 0.07,0 0.13,0.02 0.19,0.06 0.06,0.04 0.11,0.11 0.14,0.23 0.03,0.11 0.06,0.27 0.09,0.46 0.03,0.2 0.04,0.44 0.04,0.75z"/>
  </g>
 </g>
</svg>
