<svg width="375" height="158" viewBox="0 0 375 158" fill="none" xmlns="http://www.w3.org/2000/svg">
<path d="M0 0H375V128C375 144.569 361.569 158 345 158H30C13.4315 158 0 144.569 0 128V0Z" fill="#2395FF"/>
<path d="M20.3188 152.625C22.5266 155.912 25.6273 157.777 28.8722 157.772L74.7643 157.686C78.386 157.679 81.9556 156.507 85.1844 154.264L187.473 83.3098C196.874 76.7887 205.3 67.4803 211.034 55.2885C217.471 41.6023 218.171 31.698 215.629 24.7011C213.094 17.6993 206.932 12.5574 195.151 11.5098C184.657 10.5775 174.219 14.3547 164.819 20.871L130.187 44.8941L53.3018 5.45955C52.3774 4.60828 51.3034 4.11 50.1909 4.01622C49.0784 3.92244 47.9677 4.23657 46.9738 4.92613L23.859 20.9623C20.1079 23.5621 19.2009 30.4053 22.0414 34.6726L76.9615 81.8153L40.6774 106.987L15.2424 89.4609C14.3661 88.857 13.3981 88.5432 12.4168 88.5449C11.4354 88.5466 10.4681 88.8636 9.59285 89.4706L-4.51508 99.2595C-8.18533 101.806 -9.1521 108.448 -6.47325 112.754L20.3188 152.625Z" fill="#41A4FF"/>
</svg>
