<svg width="78" height="14" viewBox="0 0 78 14" fill="none" xmlns="http://www.w3.org/2000/svg">
<path d="M6.69533 0.487005L4.86449 4.10687L0.768236 4.68922C0.0336581 4.79311 -0.260734 5.67621 0.271975 6.182L3.23552 8.99806L2.53459 12.9761C2.40842 13.6951 3.18505 14.2337 3.83552 13.8975L7.5 12.0192L11.1645 13.8975C11.8149 14.231 12.5916 13.6951 12.4654 12.9761L11.7645 8.99806L14.728 6.182C15.2607 5.67621 14.9663 4.79311 14.2318 4.68922L10.1355 4.10687L8.30467 0.487005C7.97664 -0.158228 7.02617 -0.16643 6.69533 0.487005Z" fill="#FF7F23"/>
<path d="M27.6953 0.487005L25.8645 4.10687L21.7682 4.68922C21.0337 4.79311 20.7393 5.67621 21.272 6.182L24.2355 8.99806L23.5346 12.9761C23.4084 13.6951 24.1851 14.2337 24.8355 13.8975L28.5 12.0192L32.1645 13.8975C32.8149 14.231 33.5916 13.6951 33.4654 12.9761L32.7645 8.99806L35.728 6.182C36.2607 5.67621 35.9663 4.79311 35.2318 4.68922L31.1355 4.10687L29.3047 0.487005C28.9766 -0.158228 28.0262 -0.16643 27.6953 0.487005Z" fill="#FF7F23"/>
<path d="M48.6953 0.487005L46.8645 4.10687L42.7682 4.68922C42.0337 4.79311 41.7393 5.67621 42.272 6.182L45.2355 8.99806L44.5346 12.9761C44.4084 13.6951 45.1851 14.2337 45.8355 13.8975L49.5 12.0192L53.1645 13.8975C53.8149 14.231 54.5916 13.6951 54.4654 12.9761L53.7645 8.99806L56.728 6.182C57.2607 5.67621 56.9663 4.79311 56.2318 4.68922L52.1355 4.10687L50.3047 0.487005C49.9766 -0.158228 49.0262 -0.16643 48.6953 0.487005Z" fill="#FF7F23"/>
<path d="M69.6953 0.487005L67.8645 4.10687L63.7682 4.68922C63.0337 4.79311 62.7393 5.67621 63.272 6.182L66.2355 8.99806L65.5346 12.9761C65.4084 13.6951 66.1851 14.2337 66.8355 13.8975L70.5 12.0192L74.1645 13.8975C74.8149 14.231 75.5916 13.6951 75.4654 12.9761L74.7645 8.99806L77.728 6.182C78.2607 5.67621 77.9663 4.79311 77.2318 4.68922L73.1355 4.10687L71.3047 0.487005C70.9766 -0.158228 70.0262 -0.16643 69.6953 0.487005Z" fill="#FF7F23"/>
</svg>
