<svg width="786" height="1024" viewBox="0 0 786 1024" fill="none" xmlns="http://www.w3.org/2000/svg">
<rect width="786" height="1024" fill="#2395FF"/>
<path fill-rule="evenodd" clip-rule="evenodd" d="M342.906 308.546C433.659 286.831 482.246 377.766 529.194 445.026C573.831 508.973 633.584 582.887 579.441 647.415C519.841 718.445 406.591 726.423 319.072 695.447C242.341 668.289 213.375 594.463 217.994 519.487C223.249 434.186 248.165 331.215 342.906 308.546Z" fill="white" fill-opacity="0.25"/>
<path d="M295.999 582.269C298.184 585.514 301.254 587.355 304.466 587.35L349.9 587.265C353.486 587.258 357.02 586.101 360.216 583.887L461.483 513.834C470.79 507.396 479.132 498.206 484.809 486.169C491.181 472.657 491.874 462.879 489.358 455.971C486.848 449.058 480.747 443.981 469.084 442.947C458.695 442.027 448.362 445.756 439.055 452.189L404.769 475.907L328.652 436.974C327.737 436.133 326.674 435.641 325.572 435.549C324.471 435.456 323.371 435.766 322.387 436.447L299.503 452.279C295.79 454.846 294.892 461.602 297.704 465.815L352.075 512.359L316.154 537.21L290.973 519.907C290.105 519.311 289.147 519.001 288.175 519.003C287.204 519.005 286.246 519.318 285.38 519.917L271.413 529.581C267.779 532.096 266.822 538.653 269.474 542.904L295.999 582.269Z" fill="white"/>
<path d="M284.445 708.037C285.212 709.174 286.289 709.819 287.416 709.817L303.351 709.787C304.609 709.785 305.848 709.379 306.97 708.604L342.488 684.058C345.753 681.802 348.679 678.582 350.67 674.365C352.905 669.63 353.148 666.204 352.265 663.784C351.385 661.362 349.245 659.583 345.155 659.22C341.511 658.898 337.886 660.205 334.622 662.459L322.596 670.769L295.899 657.127C295.578 656.833 295.205 656.661 294.818 656.628C294.432 656.596 294.046 656.704 293.701 656.943L285.675 662.49C284.372 663.39 284.057 665.757 285.044 667.233L304.114 683.541L291.515 692.249L282.683 686.186C282.378 685.977 282.042 685.869 281.702 685.869C281.361 685.87 281.025 685.979 280.721 686.189L275.822 689.576C274.548 690.457 274.212 692.754 275.142 694.244L284.445 708.037Z" fill="#E7F3FF"/>
<path d="M542.106 536.816C542.873 537.953 543.95 538.598 545.076 538.597L561.012 538.567C562.27 538.565 563.509 538.159 564.63 537.383L600.149 512.838C603.413 510.582 606.34 507.362 608.331 503.145C610.566 498.41 610.809 494.984 609.926 492.563C609.046 490.141 606.906 488.363 602.815 488C599.171 487.678 595.547 488.984 592.283 491.239L580.257 499.549L553.559 485.907C553.238 485.613 552.865 485.44 552.479 485.408C552.093 485.376 551.707 485.484 551.362 485.723L543.335 491.27C542.033 492.169 541.718 494.537 542.704 496.013L561.775 512.321L549.176 521.029L540.343 514.966C540.039 514.757 539.703 514.648 539.362 514.649C539.021 514.65 538.686 514.759 538.382 514.969L533.483 518.356C532.208 519.237 531.873 521.534 532.803 523.024L542.106 536.816Z" fill="#9DD0FF"/>
<path d="M437.554 349.864C437.946 350.433 438.495 350.755 439.071 350.754L447.208 350.739C447.85 350.738 448.483 350.535 449.056 350.147L467.193 337.875C468.86 336.747 470.354 335.137 471.371 333.028C472.512 330.661 472.636 328.948 472.186 327.738C471.736 326.526 470.643 325.637 468.555 325.456C466.694 325.295 464.843 325.948 463.176 327.075L457.035 331.23L443.403 324.409C443.239 324.262 443.048 324.176 442.851 324.16C442.654 324.144 442.457 324.198 442.281 324.317L438.182 327.091C437.517 327.541 437.356 328.724 437.86 329.462L447.598 337.616L441.164 341.97L436.654 338.939C436.499 338.834 436.327 338.78 436.153 338.78C435.979 338.781 435.807 338.835 435.652 338.94L433.151 340.634C432.5 341.074 432.329 342.223 432.804 342.968L437.554 349.864Z" fill="#C8E4FF"/>
</svg>
